PathFileType	4	(X/Y/Z)	E:\Marcel_BSc\Ayumi_22_01_2025\22-01-2025\conv_dl_3.trc
DataRate	CameraRate	NumFrames	NumMarkers	Units	OrigDataRate	OrigDataStartFrame	OrigNumFrames
200.0	200.0	7	47	mm	200.0	289	2304	
Frame#	Time	FHD			LBHD			RBHD			RBAR			LBAR			RSACR			LSACR			USACR			C7			CLAV			T10			RSHO			LSHO			LTHI1			LTHI3			LTHI2			LTIB1			LTIB2			LTIB3			LMMAL			LLMAL			LHEE			LMT1			LMT5			LMT3			RTHI1			RTHI2			RTHI3			RTIB1			RTIB3			RTIB2			RLMAL			RMMAL			RHEE			RMT5			RMT1			RMT3			LDUPA			LMUPA			LUUPA			LRAD			RUL			RRAD			RUFIN			RMUPA			RDUPA			RUUPA			
		X1	Y1	Z1	X2	Y2	Z2	X3	Y3	Z3	X4	Y4	Z4	X5	Y5	Z5	X6	Y6	Z6	X7	Y7	Z7	X8	Y8	Z8	X9	Y9	Z9	X10	Y10	Z10	X11	Y11	Z11	X12	Y12	Z12	X13	Y13	Z13	X14	Y14	Z14	X15	Y15	Z15	X16	Y16	Z16	X17	Y17	Z17	X18	Y18	Z18	X19	Y19	Z19	X20	Y20	Z20	X21	Y21	Z21	X22	Y22	Z22	X23	Y23	Z23	X24	Y24	Z24	X25	Y25	Z25	X26	Y26	Z26	X27	Y27	Z27	X28	Y28	Z28	X29	Y29	Z29	X30	Y30	Z30	X31	Y31	Z31	X32	Y32	Z32	X33	Y33	Z33	X34	Y34	Z34	X35	Y35	Z35	X36	Y36	Z36	X37	Y37	Z37	X38	Y38	Z38	X39	Y39	Z39	X40	Y40	Z40	X41	Y41	Z41	X42	Y42	Z42	X43	Y43	Z43	X44	Y44	Z44	X45	Y45	Z45	X46	Y46	Z46	X47	Y47	Z47	
289	1.435	-37.614494	1539.932	-632.53015	-15.742861	1530.2043	-572.03961	11.265221	1528.3221	-702.73584	210.89211	239.60373	-1728.4717	204.26828	251.34364	494.27527	349.6109	981.40521	-683.13745	352.63123	980.74414	-611.03491	343.07446	990.6308	-645.69879	215.94838	1403.9539	-627.74701	92.910507	1311.8584	-641.19775	299.58008	1138.3937	-639.02972	156.39455	1392.4014	-782.34155	142.22859	1376.2273	-480.46439	269.37292	609.07166	-447.6051	277.42844	544.74506	-460.78394	228.69936	556.03381	-451.16113	243.34657	241.19464	-439.58521	293.84628	239.63345	-444.46402	263.98431	181.17416	-446.51175	258.11359	73.982483	-528.38788	277.95697	74.313759	-454.87518	317.82358	37.48381	-496.73593	120.90881	44.715641	-480.59076	150.26091	27.723326	-404.91104	121.88908	41.715202	-445.995	269.35211	608.62671	-826.25452	230.41251	556.38159	-819.71185	280.02438	545.70233	-813.54596	252.06494	279.31665	-829.19977	275.14606	218.33867	-821.65326	302.38156	278.03897	-824.06055	288.60803	74.902405	-803.85187	253.50574	78.048981	-734.44495	328.95032	31.261381	-759.67444	149.73375	38.153671	-839.35779	129.88229	41.205589	-788.57355	137.08444	39.377735	-818.00092	256.11975	1274.4761	-321.12988	217.798	1304.8148	-310.17749	220.46509	1328.7249	-367.43661	217.65947	1182.7219	-1.2413385	309.83081	1243.1571	-1248.6412	250.46149	1240.0536	-1262.2007	261.85406	1234.4716	-1331.4662	248.25264	1350.5476	-875.22284	262.3598	1330.6605	-932.16016	280.39066	1316.3463	-856.47064
290	1.44	-40.070671	1536.9977	-632.3161	-18.094133	1527.572	-571.83429	8.9271803	1525.9319	-702.53021	211.07088	239.58479	-1728.4501	204.40277	251.34561	494.30579	350.53885	981.46454	-683.28137	353.79977	980.62299	-611.25134	343.97879	990.62006	-645.85022	214.70879	1403.4802	-627.58313	92.230186	1310.6252	-641.0575	299.84198	1138.245	-639.07483	155.04561	1391.6837	-782.51813	141.28918	1374.8094	-479.94232	270.0004	608.83966	-447.53171	277.7157	544.53394	-460.73749	229.29469	556.15375	-450.46884	243.25304	241.27711	-439.37088	293.72598	239.64478	-444.3721	263.96838	181.1456	-446.43613	258.08722	73.987816	-528.36615	277.94031	74.28138	-454.83902	317.83829	37.454388	-496.72293	120.9349	44.715855	-480.57285	150.27504	27.703688	-404.90695	122.31539	41.891293	-445.53021	269.79868	608.31439	-826.47986	230.63179	556.22803	-819.90631	280.24591	545.31036	-813.71497	251.86485	279.23544	-829.36548	274.97229	218.31107	-821.74243	302.13547	278.06635	-824.15198	288.58017	74.918373	-803.88165	252.99767	78.38987	-734.38477	328.95071	31.239683	-759.67157	149.735	38.148216	-839.35797	129.88289	41.203426	-788.56256	137.07733	39.376839	-818.00262	255.8909	1272.1658	-321.57788	217.41966	1302.1476	-310.27847	219.89301	1326.6874	-367.26602	218.24625	1177.0328	-2.6090803	309.80386	1238.8358	-1247.5768	250.43571	1235.0862	-1261.0001	261.73956	1228.9506	-1330.2537	247.33008	1349.2908	-875.1889	261.57407	1328.959	-932.00983	279.6929	1315.5245	-856.13843
291	1.445	-42.575008	1534.1096	-632.02301	-20.463966	1524.9635	-571.63849	6.5986633	1523.5275	-702.35645	211.24748	239.60356	-1728.4552	204.6377	251.35963	494.23788	351.48685	981.5213	-683.42493	354.71524	980.76233	-611.3125	344.87643	990.57495	-645.96729	213.5486	1402.9014	-627.3905	91.614899	1309.3877	-640.86371	300.11398	1138.0764	-639.09808	153.73535	1390.619	-782.71899	140.37457	1373.3483	-479.38025	270.86484	609.02954	-447.39435	278.06763	544.34302	-460.64084	229.53526	556.00531	-450.99118	243.18782	241.29268	-439.21649	293.66821	239.57233	-444.27222	263.85538	180.63197	-446.22934	258.08862	73.996094	-528.35376	277.94214	74.274162	-454.78119	317.83667	37.466187	-496.71002	120.94257	44.726032	-480.55966	150.28903	27.701353	-404.90018	122.33047	41.939606	-445.51706	270.2645	607.97479	-826.7121	230.82968	556.1095	-820.1109	280.40652	545.04645	-813.84039	251.61922	279.19531	-829.43317	274.79999	218.29436	-821.84344	301.88617	278.07031	-824.23529	288.56259	74.906448	-803.92578	253.41281	78.01265	-734.47522	328.95529	31.256187	-759.69312	149.74953	38.14188	-839.3349	129.89015	41.218739	-788.55414	137.08252	39.392284	-818.00757	255.65034	1269.8186	-322.05307	217.02533	1299.4664	-310.39325	219.23172	1324.5724	-367.18369	218.76389	1171.2677	-4.0956311	309.93521	1234.2974	-1246.259	250.41896	1230.0658	-1259.9281	261.63635	1223.3743	-1329.0193	246.63139	1347.728	-875.12848	260.95551	1326.9935	-931.74615	279.05374	1314.5225	-855.91705
292	1.45	-44.855484	1530.941	-631.71625	-22.73999	1522.1646	-571.39276	4.2262015	1521.1604	-702.13165	211.34087	239.65256	-1728.5266	204.8326	251.33931	494.22137	352.48346	981.45325	-683.58362	355.72412	980.71838	-611.48102	345.80963	990.53699	-646.11633	212.33852	1402.342	-627.20892	90.976517	1308.0688	-640.6554	300.30804	1137.9613	-639.12445	152.82085	1388.955	-783.05322	139.39566	1371.7716	-478.83911	271.19418	608.44629	-447.38217	278.44482	544.10071	-460.58789	230.1375	556.10693	-450.30173	243.08484	241.31761	-439.07486	293.57541	239.58289	-444.15353	263.8577	180.52672	-446.14166	258.09244	74.007729	-528.33478	277.92023	74.261398	-454.72549	317.85376	37.448788	-496.67789	120.96346	44.754055	-480.56381	150.29245	27.703318	-404.8851	122.35226	41.956036	-445.52631	270.58347	607.79376	-827.01978	231.03908	555.96405	-820.34637	280.53995	544.7608	-814.05536	251.40086	279.14233	-829.58411	274.64301	218.23071	-821.93231	301.64575	278.04523	-824.34766	288.51505	74.922356	-803.96613	252.94348	78.33519	-734.43622	328.95248	31.260054	-759.70978	149.75107	38.141693	-839.34369	129.87296	41.219692	-788.56744	137.08998	39.39426	-818.00122	255.38629	1267.5001	-322.53229	216.59563	1296.7426	-310.56143	218.65723	1322.4946	-367.04333	219.23495	1165.7334	-5.550518	309.9194	1229.9241	-1245.1503	250.36931	1224.9678	-1258.7549	261.73135	1217.6855	-1327.8918	245.53574	1346.437	-875.21741	260.23581	1325.2231	-931.5069	278.43985	1313.4812	-855.61395
293	1.455	-47.322269	1527.8693	-631.49463	-25.135759	1519.3489	-571.21692	1.8592095	1518.7032	-701.87646	211.36349	239.81725	-1728.4012	205.00191	251.34309	494.2027	353.37042	981.54736	-683.7016	356.70636	980.78125	-611.59314	346.75735	990.55261	-646.24933	211.11078	1401.7546	-627.00104	90.305641	1306.7159	-640.46899	300.60016	1137.7588	-639.16266	151.54117	1387.4701	-783.14081	138.39532	1370.1257	-478.28122	271.93073	608.17072	-447.24237	278.87122	543.88287	-460.51224	230.55774	556.08466	-450.19635	243.03978	241.27721	-439.00714	293.45508	239.52171	-444.03247	263.84024	180.55421	-446.0412	258.10291	74.015717	-528.28662	277.94965	74.215363	-454.664	317.90173	37.401455	-496.65936	121.00248	44.738697	-480.5473	150.29497	27.712763	-404.88	122.37714	41.997478	-445.54242	271.02304	607.48688	-827.26904	231.24261	555.82483	-820.64734	280.69363	544.42938	-814.26587	251.53323	278.60059	-829.70483	274.4776	218.21962	-822.04706	301.42847	278.0401	-824.43774	288.50143	74.91758	-804.01343	252.92053	78.353722	-734.46838	328.94946	31.26685	-759.73792	149.76549	38.120815	-839.35388	129.89717	41.210617	-788.59015	137.09891	39.39991	-818.00433	255.1237	1265.1344	-323.03067	216.14735	1294.012	-310.71536	218.0118	1320.3488	-366.92096	219.7939	1159.9827	-7.0570488	309.85239	1225.3192	-1244.0677	250.29266	1219.9083	-1257.5033	261.76981	1211.968	-1326.6788	244.58809	1345.292	-875.40179	259.47275	1323.4509	-931.3269	277.7869	1312.4054	-855.31445
294	1.46	-49.758141	1524.7417	-631.24615	-27.450806	1516.505	-570.9826	-0.4534902	1516.1659	-701.64655	211.58389	239.80295	-1728.3595	205.1438	251.34627	494.23563	354.3959	981.44177	-683.88379	357.79105	980.64789	-611.79022	347.67014	990.49158	-646.36877	209.88115	1401.0979	-626.7934	89.60717	1305.3213	-640.34796	300.86105	1137.52	-639.16675	150.36452	1386.1211	-783.36554	137.45183	1368.5892	-477.75443	272.55966	607.93085	-447.13861	279.30353	543.59882	-460.41635	230.99712	556.06274	-450.01123	243.00981	241.24271	-438.91055	293.43204	239.53546	-443.87668	263.84531	180.96797	-446.10339	258.10815	74.032974	-528.2428	277.98596	74.183823	-454.58606	317.92484	37.391815	-496.61447	121.06607	44.714642	-480.51511	150.33379	27.715206	-404.86908	122.3926	42.040104	-445.53796	271.42636	607.28857	-827.48175	231.42618	555.78058	-820.88824	280.79898	544.11578	-814.50348	251.06403	278.86743	-829.94153	274.3241	218.14268	-822.16711	301.2164	278.01474	-824.56232	288.4422	74.92083	-804.08105	253.41699	77.973579	-734.5965	328.96118	31.248802	-759.73694	149.73946	38.138206	-839.354	129.90363	41.195396	-788.58728	137.08984	39.3997	-818.00488	254.80693	1262.7649	-323.49594	215.67421	1291.2943	-310.89026	217.2674	1318.1403	-366.87772	220.31088	1154.2371	-8.6118679	309.69669	1221.2539	-1243.1016	250.19368	1214.8252	-1256.2253	261.7504	1206.2775	-1325.3525	243.9346	1343.6521	-875.36865	258.48715	1321.6273	-931.22961	276.87299	1311.6744	-855.15149
295	1.465	-51.972271	1521.7413	-630.60736	-29.860281	1513.6483	-570.80096	-2.824784	1513.6276	-701.37543	211.87056	239.87694	-1728.2999	205.27554	251.34584	494.29324	355.36182	981.4541	-684.05267	358.80481	980.64838	-611.91699	348.66876	990.4118	-646.52423	208.66068	1400.4506	-626.63452	88.961136	1303.9581	-640.09308	301.12979	1137.2935	-639.18707	149.19135	1384.7203	-783.58057	136.43869	1366.9548	-477.21185	273.33896	607.65265	-447.01288	279.66882	543.25433	-460.33032	231.3903	555.98401	-449.95511	242.98361	241.23402	-438.80524	293.40112	239.48894	-443.77463	263.7673	180.45773	-445.90695	258.13733	74.041412	-528.20532	277.96799	74.150475	-454.51736	317.95786	37.344929	-496.58835	121.12305	44.725616	-480.48993	150.34535	27.721247	-404.85309	122.46396	42.044678	-445.51248	271.82913	607.00922	-827.84662	231.5517	555.81396	-821.10828	280.91339	543.85901	-814.70093	250.85675	278.83023	-830.07727	274.13446	218.13676	-822.31708	301.01511	278.01352	-824.71014	288.45233	74.903732	-804.12585	253.38948	77.993423	-734.63336	328.96445	31.245434	-759.75006	149.73584	38.163181	-839.34845	129.90961	41.193081	-788.60352	137.09265	39.403885	-818.00336	254.51422	1260.3436	-323.97229	215.13153	1288.4863	-311.0787	216.64848	1315.9751	-366.76285	220.81392	1148.5068	-10.174948	309.72702	1216.3632	-1241.8395	250.10178	1209.6862	-1254.9402	261.66565	1200.5859	-1324.0216	242.74677	1342.3248	-875.40399	257.94617	1319.7047	-930.97986	276.18777	1310.5505	-854.78156
